<?xml version="1.0" encoding="UTF-8"?>
<svg xmlns="http://www.w3.org/2000/svg" width="800.000" height="600.000" viewBox="0.0 0.0 800.000 600.000" version="1.1">
  <title>Produce by Acme CAD Converter</title>
  <desc>Produce by Acme CAD Converter</desc>
<polyline points="7.84,30.42 7.84,569.58" style="fill:none;stroke:black;stroke-width:0.5"/>
<polyline points="7.84,569.58 792.16,569.58" style="fill:none;stroke:black;stroke-width:0.5"/>
<polyline points="792.16,569.58 792.16,30.42" style="fill:none;stroke:black;stroke-width:0.5"/>
<polyline points="792.16,30.42 7.84,30.42" style="fill:none;stroke:black;stroke-width:0.5"/>
<polyline points="521.14,417.07 638.66,417.07" style="fill:none;stroke:black;stroke-width:0.5"/>
<polyline points="638.66,417.07 638.66,425.45" style="fill:none;stroke:black;stroke-width:0.5"/>
<polyline points="638.66,425.45 645.37,425.45" style="fill:none;stroke:black;stroke-width:0.5"/>
<polyline points="645.37,425.45 645.37,451.48" style="fill:none;stroke:black;stroke-width:0.5"/>
<polyline points="645.37,451.48 638.66,451.48" style="fill:none;stroke:black;stroke-width:0.5"/>
<polyline points="638.66,451.48 638.66,500.17" style="fill:none;stroke:black;stroke-width:0.5"/>
<polyline points="638.66,500.17 645.37,500.17" style="fill:none;stroke:black;stroke-width:0.5"/>
<polyline points="645.37,500.17 645.37,526.18" style="fill:none;stroke:black;stroke-width:0.5"/>
<polyline points="645.37,526.18 638.66,526.18" style="fill:none;stroke:black;stroke-width:0.5"/>
<polyline points="638.66,526.18 638.66,534.58" style="fill:none;stroke:black;stroke-width:0.5"/>
<polyline points="638.66,534.58 521.14,534.58" style="fill:none;stroke:black;stroke-width:0.5"/>
<polyline points="521.14,534.58 521.14,526.18" style="fill:none;stroke:black;stroke-width:0.5"/>
<polyline points="521.14,526.18 514.42,526.18" style="fill:none;stroke:black;stroke-width:0.5"/>
<polyline points="514.42,526.18 514.42,500.17" style="fill:none;stroke:black;stroke-width:0.5"/>
<polyline points="514.42,500.17 521.14,500.17" style="fill:none;stroke:black;stroke-width:0.5"/>
<polyline points="521.14,500.17 521.14,451.48" style="fill:none;stroke:black;stroke-width:0.5"/>
<polyline points="521.14,451.48 514.42,451.48" style="fill:none;stroke:black;stroke-width:0.5"/>
<polyline points="514.42,451.48 514.42,425.45" style="fill:none;stroke:black;stroke-width:0.5"/>
<polyline points="514.42,425.45 521.14,425.45" style="fill:none;stroke:black;stroke-width:0.5"/>
<polyline points="521.14,425.45 521.14,417.07" style="fill:none;stroke:black;stroke-width:0.5"/>
<polyline points="161.35,417.07 278.87,417.07" style="fill:none;stroke:black;stroke-width:0.5"/>
<polyline points="278.87,417.07 278.87,425.45" style="fill:none;stroke:black;stroke-width:0.5"/>
<polyline points="278.87,425.45 285.59,425.45" style="fill:none;stroke:black;stroke-width:0.5"/>
<polyline points="285.59,425.45 285.59,451.48" style="fill:none;stroke:black;stroke-width:0.5"/>
<polyline points="285.59,451.48 278.87,451.48" style="fill:none;stroke:black;stroke-width:0.5"/>
<polyline points="278.87,451.48 278.87,500.17" style="fill:none;stroke:black;stroke-width:0.5"/>
<polyline points="278.87,500.17 285.59,500.17" style="fill:none;stroke:black;stroke-width:0.5"/>
<polyline points="285.59,500.17 285.59,526.18" style="fill:none;stroke:black;stroke-width:0.5"/>
<polyline points="285.59,526.18 278.87,526.18" style="fill:none;stroke:black;stroke-width:0.5"/>
<polyline points="278.87,526.18 278.87,534.58" style="fill:none;stroke:black;stroke-width:0.5"/>
<polyline points="278.87,534.58 161.35,534.58" style="fill:none;stroke:black;stroke-width:0.5"/>
<polyline points="161.35,534.58 161.35,526.18" style="fill:none;stroke:black;stroke-width:0.5"/>
<polyline points="161.35,526.18 154.63,526.18" style="fill:none;stroke:black;stroke-width:0.5"/>
<polyline points="154.63,526.18 154.63,500.17" style="fill:none;stroke:black;stroke-width:0.5"/>
<polyline points="154.63,500.17 161.35,500.17" style="fill:none;stroke:black;stroke-width:0.5"/>
<polyline points="161.35,500.17 161.35,451.48" style="fill:none;stroke:black;stroke-width:0.5"/>
<polyline points="161.35,451.48 154.63,451.48" style="fill:none;stroke:black;stroke-width:0.5"/>
<polyline points="154.63,451.48 154.63,425.45" style="fill:none;stroke:black;stroke-width:0.5"/>
<polyline points="154.63,425.45 161.35,425.45" style="fill:none;stroke:black;stroke-width:0.5"/>
<polyline points="161.35,425.45 161.35,417.07" style="fill:none;stroke:black;stroke-width:0.5"/>
<polyline points="241.31,257.16 358.82,257.16" style="fill:none;stroke:black;stroke-width:0.5"/>
<polyline points="358.82,257.16 358.82,265.55" style="fill:none;stroke:black;stroke-width:0.5"/>
<polyline points="358.82,265.55 365.54,265.55" style="fill:none;stroke:black;stroke-width:0.5"/>
<polyline points="365.54,265.55 365.54,291.57" style="fill:none;stroke:black;stroke-width:0.5"/>
<polyline points="365.54,291.57 358.82,291.57" style="fill:none;stroke:black;stroke-width:0.5"/>
<polyline points="358.82,291.57 358.82,340.26" style="fill:none;stroke:black;stroke-width:0.5"/>
<polyline points="358.82,340.26 365.54,340.26" style="fill:none;stroke:black;stroke-width:0.5"/>
<polyline points="365.54,340.26 365.54,366.27" style="fill:none;stroke:black;stroke-width:0.5"/>
<polyline points="365.54,366.27 358.82,366.27" style="fill:none;stroke:black;stroke-width:0.5"/>
<polyline points="358.82,366.27 358.82,374.67" style="fill:none;stroke:black;stroke-width:0.5"/>
<polyline points="358.82,374.67 241.31,374.67" style="fill:none;stroke:black;stroke-width:0.5"/>
<polyline points="241.31,374.67 241.31,366.27" style="fill:none;stroke:black;stroke-width:0.5"/>
<polyline points="241.31,366.27 234.59,366.27" style="fill:none;stroke:black;stroke-width:0.5"/>
<polyline points="234.59,366.27 234.59,340.26" style="fill:none;stroke:black;stroke-width:0.5"/>
<polyline points="234.59,340.26 241.31,340.26" style="fill:none;stroke:black;stroke-width:0.5"/>
<polyline points="241.31,340.26 241.31,291.57" style="fill:none;stroke:black;stroke-width:0.5"/>
<polyline points="241.31,291.57 234.59,291.57" style="fill:none;stroke:black;stroke-width:0.5"/>
<polyline points="234.59,291.57 234.59,265.55" style="fill:none;stroke:black;stroke-width:0.5"/>
<polyline points="234.59,265.55 241.31,265.55" style="fill:none;stroke:black;stroke-width:0.5"/>
<polyline points="241.31,265.55 241.31,257.16" style="fill:none;stroke:black;stroke-width:0.5"/>
<polyline points="41.42,257.16 158.94,257.16" style="fill:none;stroke:black;stroke-width:0.5"/>
<polyline points="158.94,257.16 158.94,265.55" style="fill:none;stroke:black;stroke-width:0.5"/>
<polyline points="158.94,265.55 165.65,265.55" style="fill:none;stroke:black;stroke-width:0.5"/>
<polyline points="165.65,265.55 165.65,291.57" style="fill:none;stroke:black;stroke-width:0.5"/>
<polyline points="165.65,291.57 158.94,291.57" style="fill:none;stroke:black;stroke-width:0.5"/>
<polyline points="158.94,291.57 158.94,340.26" style="fill:none;stroke:black;stroke-width:0.5"/>
<polyline points="158.94,340.26 165.65,340.26" style="fill:none;stroke:black;stroke-width:0.5"/>
<polyline points="165.65,340.26 165.65,366.27" style="fill:none;stroke:black;stroke-width:0.5"/>
<polyline points="165.65,366.27 158.94,366.27" style="fill:none;stroke:black;stroke-width:0.5"/>
<polyline points="158.94,366.27 158.94,374.67" style="fill:none;stroke:black;stroke-width:0.5"/>
<polyline points="158.94,374.67 41.42,374.67" style="fill:none;stroke:black;stroke-width:0.5"/>
<polyline points="41.42,374.67 41.42,366.27" style="fill:none;stroke:black;stroke-width:0.5"/>
<polyline points="41.42,366.27 34.7,366.27" style="fill:none;stroke:black;stroke-width:0.5"/>
<polyline points="34.7,366.27 34.7,340.26" style="fill:none;stroke:black;stroke-width:0.5"/>
<polyline points="34.7,340.26 41.42,340.26" style="fill:none;stroke:black;stroke-width:0.5"/>
<polyline points="41.42,340.26 41.42,291.57" style="fill:none;stroke:black;stroke-width:0.5"/>
<polyline points="41.42,291.57 34.7,291.57" style="fill:none;stroke:black;stroke-width:0.5"/>
<polyline points="34.7,291.57 34.7,265.55" style="fill:none;stroke:black;stroke-width:0.5"/>
<polyline points="34.7,265.55 41.42,265.55" style="fill:none;stroke:black;stroke-width:0.5"/>
<polyline points="41.42,265.55 41.42,257.16" style="fill:none;stroke:black;stroke-width:0.5"/>
<polyline points="441.19,257.16 558.7,257.16" style="fill:none;stroke:black;stroke-width:0.5"/>
<polyline points="558.7,257.16 558.7,265.55" style="fill:none;stroke:black;stroke-width:0.5"/>
<polyline points="558.7,265.55 565.41,265.55" style="fill:none;stroke:black;stroke-width:0.5"/>
<polyline points="565.41,265.55 565.41,291.57" style="fill:none;stroke:black;stroke-width:0.5"/>
<polyline points="565.41,291.57 558.7,291.57" style="fill:none;stroke:black;stroke-width:0.5"/>
<polyline points="558.7,291.57 558.7,340.26" style="fill:none;stroke:black;stroke-width:0.5"/>
<polyline points="558.7,340.26 565.41,340.26" style="fill:none;stroke:black;stroke-width:0.5"/>
<polyline points="565.41,340.26 565.41,366.27" style="fill:none;stroke:black;stroke-width:0.5"/>
<polyline points="565.41,366.27 558.7,366.27" style="fill:none;stroke:black;stroke-width:0.5"/>
<polyline points="558.7,366.27 558.7,374.67" style="fill:none;stroke:black;stroke-width:0.5"/>
<polyline points="558.7,374.67 441.19,374.67" style="fill:none;stroke:black;stroke-width:0.5"/>
<polyline points="441.19,374.67 441.19,366.27" style="fill:none;stroke:black;stroke-width:0.5"/>
<polyline points="441.19,366.27 434.47,366.27" style="fill:none;stroke:black;stroke-width:0.5"/>
<polyline points="434.47,366.27 434.47,340.26" style="fill:none;stroke:black;stroke-width:0.5"/>
<polyline points="434.47,340.26 441.19,340.26" style="fill:none;stroke:black;stroke-width:0.5"/>
<polyline points="441.19,340.26 441.19,291.57" style="fill:none;stroke:black;stroke-width:0.5"/>
<polyline points="441.19,291.57 434.47,291.57" style="fill:none;stroke:black;stroke-width:0.5"/>
<polyline points="434.47,291.57 434.47,265.55" style="fill:none;stroke:black;stroke-width:0.5"/>
<polyline points="434.47,265.55 441.19,265.55" style="fill:none;stroke:black;stroke-width:0.5"/>
<polyline points="441.19,265.55 441.19,257.16" style="fill:none;stroke:black;stroke-width:0.5"/>
<polyline points="641.07,257.16 758.59,257.16" style="fill:none;stroke:black;stroke-width:0.5"/>
<polyline points="758.59,257.16 758.59,265.55" style="fill:none;stroke:black;stroke-width:0.5"/>
<polyline points="758.59,265.55 765.3,265.55" style="fill:none;stroke:black;stroke-width:0.5"/>
<polyline points="765.3,265.55 765.3,291.57" style="fill:none;stroke:black;stroke-width:0.5"/>
<polyline points="765.3,291.57 758.59,291.57" style="fill:none;stroke:black;stroke-width:0.5"/>
<polyline points="758.59,291.57 758.59,340.26" style="fill:none;stroke:black;stroke-width:0.5"/>
<polyline points="758.59,340.26 765.3,340.26" style="fill:none;stroke:black;stroke-width:0.5"/>
<polyline points="765.3,340.26 765.3,366.27" style="fill:none;stroke:black;stroke-width:0.5"/>
<polyline points="765.3,366.27 758.59,366.27" style="fill:none;stroke:black;stroke-width:0.5"/>
<polyline points="758.59,366.27 758.59,374.67" style="fill:none;stroke:black;stroke-width:0.5"/>
<polyline points="758.59,374.67 641.07,374.67" style="fill:none;stroke:black;stroke-width:0.5"/>
<polyline points="641.07,374.67 641.07,366.27" style="fill:none;stroke:black;stroke-width:0.5"/>
<polyline points="641.07,366.27 634.35,366.27" style="fill:none;stroke:black;stroke-width:0.5"/>
<polyline points="634.35,366.27 634.35,340.26" style="fill:none;stroke:black;stroke-width:0.5"/>
<polyline points="634.35,340.26 641.07,340.26" style="fill:none;stroke:black;stroke-width:0.5"/>
<polyline points="641.07,340.26 641.07,291.57" style="fill:none;stroke:black;stroke-width:0.5"/>
<polyline points="641.07,291.57 634.35,291.57" style="fill:none;stroke:black;stroke-width:0.5"/>
<polyline points="634.35,291.57 634.35,265.55" style="fill:none;stroke:black;stroke-width:0.5"/>
<polyline points="634.35,265.55 641.07,265.55" style="fill:none;stroke:black;stroke-width:0.5"/>
<polyline points="641.07,265.55 641.07,257.16" style="fill:none;stroke:black;stroke-width:0.5"/>
<polyline points="341.25,57.28 458.76,57.28" style="fill:none;stroke:black;stroke-width:0.5"/>
<polyline points="458.76,57.28 458.76,65.68" style="fill:none;stroke:black;stroke-width:0.5"/>
<polyline points="458.76,65.68 465.48,65.68" style="fill:none;stroke:black;stroke-width:0.5"/>
<polyline points="465.48,65.68 465.48,91.69" style="fill:none;stroke:black;stroke-width:0.5"/>
<polyline points="465.48,91.69 458.76,91.69" style="fill:none;stroke:black;stroke-width:0.5"/>
<polyline points="458.76,91.69 458.76,140.38" style="fill:none;stroke:black;stroke-width:0.5"/>
<polyline points="458.76,140.38 465.48,140.38" style="fill:none;stroke:black;stroke-width:0.5"/>
<polyline points="465.48,140.38 465.48,166.4" style="fill:none;stroke:black;stroke-width:0.5"/>
<polyline points="465.48,166.4 458.76,166.4" style="fill:none;stroke:black;stroke-width:0.5"/>
<polyline points="458.76,166.4 458.76,174.79" style="fill:none;stroke:black;stroke-width:0.5"/>
<polyline points="458.76,174.79 341.25,174.79" style="fill:none;stroke:black;stroke-width:0.5"/>
<polyline points="341.25,174.79 341.25,166.4" style="fill:none;stroke:black;stroke-width:0.5"/>
<polyline points="341.25,166.4 334.53,166.4" style="fill:none;stroke:black;stroke-width:0.5"/>
<polyline points="334.53,166.4 334.53,140.38" style="fill:none;stroke:black;stroke-width:0.5"/>
<polyline points="334.53,140.38 341.25,140.38" style="fill:none;stroke:black;stroke-width:0.5"/>
<polyline points="341.25,140.38 341.25,91.69" style="fill:none;stroke:black;stroke-width:0.5"/>
<polyline points="341.25,91.69 334.53,91.69" style="fill:none;stroke:black;stroke-width:0.5"/>
<polyline points="334.53,91.69 334.53,65.68" style="fill:none;stroke:black;stroke-width:0.5"/>
<polyline points="334.53,65.68 341.25,65.68" style="fill:none;stroke:black;stroke-width:0.5"/>
<polyline points="341.25,65.68 341.25,57.28" style="fill:none;stroke:black;stroke-width:0.5"/>
<polyline points="68.28,99.25 68.48,95.8 69.07,92.4 70.04,89.09 71.38,85.91 73.08,82.91 75.11,80.12 77.44,77.58 80.05,75.32 82.89,73.37 85.95,71.76 89.16,70.51 92.5,69.63 95.91,69.14 99.36,69.04 102.8,69.34 106.18,70.02 109.46,71.09 112.6,72.52 115.56,74.3 118.29,76.41 120.76,78.81 122.95,81.49 124.81,84.39 126.33,87.48 127.49,90.73 128.27,94.09 128.67,97.52 128.67,100.97 128.27,104.4 127.49,107.76 126.33,111.01 124.81,114.11 122.95,117.01 120.76,119.68 118.29,122.09 115.56,124.19 112.6,125.97 109.46,127.41 106.18,128.47 102.8,129.16 99.36,129.45 95.91,129.36 92.5,128.86 89.16,127.99 85.95,126.74 82.89,125.13 80.05,123.18 77.44,120.92 75.11,118.38 73.08,115.59 71.38,112.58 70.04,109.4 69.07,106.09 68.48,102.69 68.28,99.25" style="fill:none;stroke:black;stroke-width:0.5"/>
<polyline points="671.28,99.25 671.48,95.8 672.07,92.4 673.04,89.09 674.38,85.91 676.08,82.91 678.11,80.12 680.44,77.58 683.05,75.32 685.9,73.37 688.95,71.76 692.16,70.51 695.5,69.63 698.92,69.14 702.36,69.04 705.8,69.34 709.18,70.02 712.46,71.09 715.6,72.52 718.56,74.3 721.29,76.41 723.76,78.81 725.95,81.49 727.81,84.39 729.34,87.48 730.5,90.73 731.28,94.09 731.67,97.52 731.67,100.97 731.28,104.4 730.5,107.76 729.34,111.01 727.81,114.11 725.95,117.01 723.76,119.68 721.29,122.09 718.56,124.19 715.6,125.97 712.46,127.41 709.18,128.47 705.8,129.16 702.36,129.45 698.92,129.36 695.5,128.86 692.16,127.99 688.95,126.74 685.9,125.13 683.05,123.18 680.44,120.92 678.11,118.38 676.08,115.59 674.38,112.58 673.04,109.4 672.07,106.09 671.48,102.69 671.28,99.25" style="fill:none;stroke:black;stroke-width:0.5"/>
</svg>
